<svg aria-hidden="true" style="position: absolute; width: 0; height: 0; overflow: hidden;" version="1.1" xmlns="http://www.w3.org/2000/svg" xmlns:xlink="http://www.w3.org/1999/xlink">
<defs>
<symbol id="icon-ca0f6c345916f35b5fc072dd94e782ab" viewBox="0 0 32 32">
<path d="M15.19 0.361c-0.914 0.164-1.86 0.605-2.583 1.19-0.914 0.743-1.663 1.932-1.88 3.010l-0.079 0.381-0.467-0.033c-0.94-0.059-2.064 0.223-2.964 0.756-0.664 0.381-1.551 1.262-1.926 1.9-1.203 2.024-0.999 4.45 0.532 6.27 0.342 0.408 0.5 0.539 0.927 0.756l0.519 0.263h8.683c8.38 0 8.696-0.007 9.011-0.125 0.493-0.184 0.848-0.46 1.255-0.947 0.421-0.506 0.953-1.551 1.111-2.182 0.453-1.821-0.092-3.687-1.472-5.068-1.104-1.104-2.544-1.689-4.009-1.623l-0.486 0.020-0.145-0.526c-0.316-1.177-0.914-2.097-1.867-2.866-0.565-0.46-1.321-0.854-1.992-1.045-0.54-0.151-1.676-0.224-2.169-0.132zM17.274 1.61c0.723 0.223 1.203 0.513 1.748 1.052 0.835 0.828 1.242 1.84 1.242 3.069 0 0.335 0.020 0.611 0.052 0.611 0.026 0 0.25-0.059 0.5-0.132 1.295-0.368 2.629-0.164 3.727 0.559 1.689 1.131 2.314 3.51 1.407 5.39-0.269 0.552-0.789 1.209-1.131 1.42l-0.25 0.158-8.433 0.020c-5.975 0.013-8.518-0.007-8.709-0.059-0.546-0.145-1.334-1.196-1.637-2.163-0.191-0.624-0.204-1.716-0.033-2.36 0.401-1.492 1.518-2.609 3.017-3.010 0.618-0.164 1.722-0.151 2.373 0.033 0.276 0.079 0.519 0.145 0.539 0.145s0.033-0.256 0.033-0.578c0.007-1.262 0.408-2.281 1.242-3.102 0.657-0.651 1.367-1.019 2.294-1.183 0.493-0.092 1.499-0.027 2.018 0.131z"></path>
<path d="M8.696 16.254c0 0.322 5.646 14.473 5.902 14.795 0.099 0.125 0.342 0.316 0.539 0.427 0.309 0.171 0.421 0.204 0.854 0.204 0.427 0 0.539-0.026 0.848-0.197 0.191-0.105 0.434-0.296 0.539-0.421 0.276-0.335 5.909-14.44 5.909-14.795v-0.263h-1.098l-0.039 0.211c-0.020 0.118-1.282 3.339-2.8 7.151-2.037 5.1-2.82 6.974-2.938 7.079-0.223 0.204-0.618 0.204-0.835 0-0.118-0.099-0.973-2.182-2.964-7.164-1.538-3.858-2.8-7.072-2.8-7.145 0-0.118-0.046-0.132-0.559-0.132h-0.559v0.25z"></path>
<path d="M12.094 17.043l-0.375 0.375 0.592 0.592 0.592 0.585 0.788-0.776-0.572-0.579c-0.316-0.322-0.592-0.578-0.611-0.578s-0.204 0.171-0.414 0.381z"></path>
<path d="M15.479 17.010c-0.191 0.191-0.342 0.375-0.342 0.414 0 0.033 0.25 0.316 0.559 0.618l0.559 0.559 0.408-0.414 0.414-0.408-0.559-0.559c-0.302-0.309-0.585-0.559-0.624-0.559s-0.224 0.158-0.414 0.348z"></path>
<path d="M18.818 17.023l-0.355 0.362 0.585 0.592 0.591 0.592 0.789-0.789-0.559-0.559c-0.302-0.309-0.585-0.559-0.624-0.559s-0.23 0.164-0.427 0.362z"></path>
<path d="M13.79 20.539l-0.388 0.394 0.585 0.592 0.592 0.592 0.788-0.788-1.183-1.183-0.394 0.394z"></path>
<path d="M17.155 20.592l-0.375 0.375 0.578 0.579 0.578 0.572 0.776-0.788-0.552-0.559c-0.309-0.309-0.572-0.559-0.591-0.559s-0.204 0.171-0.414 0.381z"></path>
<path d="M15.479 24.108c-0.191 0.191-0.342 0.375-0.342 0.414 0 0.033 0.25 0.316 0.559 0.618l0.559 0.559 0.408-0.414 0.414-0.408-0.559-0.559c-0.302-0.309-0.585-0.559-0.624-0.559s-0.224 0.158-0.414 0.348z"></path>
</symbol>
</defs>
</svg>
